<?xml version="1.0" encoding="utf-8"?>
<!-- Generator: Adobe Illustrator 25.4.1, SVG Export Plug-In . SVG Version: 6.00 Build 0)  -->
<svg version="1.1" id="Layer_1" xmlns="http://www.w3.org/2000/svg" xmlns:xlink="http://www.w3.org/1999/xlink" x="0px" y="0px"
	 width="24px" height="24px" viewBox="0 0 24 24" style="enable-background:new 0 0 24 24;" xml:space="preserve">
<style type="text/css">
	.st0{fill:#4175F9;}
	.st1{fill:#7DA1FB;}
	.st2{fill:#F0F1F1;}
	.st3{fill:#4176F9;}
</style>
<g>
	<path class="st0" d="M24,11.7c0,0.2,0,0.4,0,0.6c0,0.2,0,0.3,0,0.5c0,1.6-0.4,3-1.1,4.4c-0.6,1.2-1.3,2.2-2.2,3.1
		c-1.7,1.8-3.8,3-6.3,3.5C13.9,24,13.4,24,12.8,24c-0.2,0-0.3,0-0.5,0c-0.2,0-0.4,0-0.6,0c-0.2,0-0.3,0-0.5,0c-1.6,0-3-0.4-4.4-1
		c-1.2-0.6-2.2-1.3-3.2-2.2c-1.9-1.8-3.1-4.1-3.5-6.7C0,13.1,0,12.2,0,11.2c0-0.5,0-1.1,0.1-1.6c0.4-2,1.3-3.9,2.6-5.4
		c1.6-2,3.7-3.2,6.2-3.9C9.6,0.1,10.3,0,11,0c0.6,0,1.3,0,1.9,0c1.1,0,2.2,0.2,3.2,0.6c1.4,0.5,2.6,1.2,3.7,2.2
		c1.1,1,2.1,2.1,2.8,3.5c0.5,1,0.9,2,1.1,3.1C24,10,24,10.6,24,11.2C24,11.4,24,11.6,24,11.7z"/>
	<path class="st1" d="M24,11.2C24,11.2,24,11.2,24,11.2c0,0.2,0,0.4,0,0.5C23.9,11.6,24,11.4,24,11.2z"/>
	<path class="st1" d="M24,12.8L24,12.8L24,12.8c0-0.2-0.1-0.3,0-0.5C24,12.5,24,12.6,24,12.8z"/>
	<path class="st1" d="M11.2,24C11.2,24,11.2,24,11.2,24c0.2,0,0.3-0.1,0.5,0C11.6,24,11.4,24,11.2,24z"/>
	<path class="st1" d="M12.8,23.9C12.8,24,12.8,24,12.8,23.9c-0.2,0-0.4,0-0.5,0C12.5,23.9,12.6,23.9,12.8,23.9z"/>
	<path class="st2" d="M10.9,11.8c0.7,0.1,1.1,0.4,1.4,1c0.3,0.7,0.3,1.5,0.1,2.2c-0.3,0.9-1,1.4-1.9,1.6c-0.3,0.1-0.7,0.1-1,0.1
		c-1.4,0-2.9,0-4.3,0c-0.2,0-0.3,0-0.3-0.2c0-2.8,0-5.7,0-8.5c0-0.2,0.1-0.2,0.3-0.2c1.4,0,2.9,0,4.3,0c0.5,0,0.9,0.1,1.4,0.2
		c0.8,0.4,1.2,1,1.3,1.8c0,0.2,0,0.5,0,0.7c-0.1,0.6-0.4,1.1-1.1,1.3C11.1,11.7,11,11.7,10.9,11.8z"/>
	<path class="st2" d="M17.1,13.8c-0.7,0-1.4,0-2.1,0c-0.2,0-0.2,0.1-0.2,0.2c0.1,0.7,0.5,1.2,1.2,1.3c0.4,0.1,0.7,0,1.1-0.1
		c0.3-0.1,0.6-0.3,0.7-0.7c0-0.1,0.1-0.2,0.2-0.2c0.4,0,0.8,0,1.3,0c0.1,0,0.2,0.1,0.2,0.2c-0.1,1-0.6,1.7-1.6,2
		c-1.1,0.3-2.1,0.3-3.1-0.1c-1-0.4-1.5-1.2-1.7-2.3c-0.2-1.3,0-2.5,1-3.5c0.5-0.5,1.1-0.7,1.7-0.8c0.7-0.1,1.4-0.1,2.1,0.2
		c0.8,0.3,1.3,1,1.6,1.8c0.2,0.6,0.2,1.1,0.2,1.7c0,0.1-0.1,0.2-0.2,0.2C18.6,13.8,17.8,13.8,17.1,13.8z"/>
	<path class="st2" d="M16.2,9.3c-0.5,0-1.1,0-1.6,0c-0.2,0-0.2,0-0.2-0.2c0-0.2,0-0.5,0-0.7c0-0.2,0-0.2,0.2-0.2c1.1,0,2.2,0,3.3,0
		c0.1,0,0.2,0,0.2,0.2c0,0.2,0,0.5,0,0.7c0,0.2-0.1,0.2-0.2,0.2C17.4,9.3,16.8,9.3,16.2,9.3C16.2,9.3,16.2,9.3,16.2,9.3z"/>
	<path class="st3" d="M8.4,12.6c0.4,0,0.7,0,1.1,0c0.5,0,0.8,0.2,1,0.7c0.1,0.3,0.1,0.6,0,0.9c-0.1,0.5-0.4,0.8-1,0.8
		c-0.8,0-1.6,0-2.4,0C7,15,7,15,7,14.9c0-0.7,0-1.4,0-2.1c0-0.1,0.1-0.2,0.2-0.2C7.6,12.6,8,12.6,8.4,12.6z"/>
	<path class="st3" d="M8.4,9.2c0.4,0,0.7,0,1.1,0c0.4,0,0.7,0.2,0.7,0.6c0,0.3,0,0.6,0,0.9c-0.1,0.3-0.3,0.5-0.6,0.5
		c-0.8,0-1.6,0-2.4,0C7,11.2,7,11.2,7,11.1c0-0.6,0-1.1,0-1.7c0-0.1,0.1-0.2,0.2-0.2C7.6,9.2,8,9.2,8.4,9.2z"/>
	<path class="st3" d="M16.2,12.6c-0.4,0-0.9,0-1.3,0c-0.1,0-0.2,0-0.1-0.2c0.2-0.9,1.2-1.4,2.1-1.1c0.5,0.2,0.8,0.7,0.8,1.2
		c0,0.2-0.1,0.1-0.2,0.1c0,0,0,0,0,0C17.1,12.6,16.7,12.6,16.2,12.6z"/>
</g>
</svg>
