<?xml version="1.0" encoding="utf-8"?>
<!-- Generator: Adobe Illustrator 25.4.1, SVG Export Plug-In . SVG Version: 6.00 Build 0)  -->
<svg version="1.1" id="Layer_1" xmlns="http://www.w3.org/2000/svg" xmlns:xlink="http://www.w3.org/1999/xlink" x="0px" y="0px"
	 width="24px" height="24px" viewBox="0 0 24 24" style="enable-background:new 0 0 24 24;" xml:space="preserve">
<style type="text/css">
	.st0{fill:#FFFFFF;}
</style>
<g>
	<path class="st0" d="M12,24c-3.5,0-6.5-1.3-8.9-3.9c-2.3-2.5-3.3-5.5-3.1-8.9C0.2,8,1.6,5.3,4,3.1c2.5-2.3,5.5-3.3,8.9-3
		c3.2,0.2,5.9,1.6,8.1,3.9c2.3,2.5,3.2,5.5,3.1,8.9C23.7,18.6,18.7,24.1,12,24z M5.8,9.1c0,1.1,0.4,2,1,2.9c1,1.7,2.3,3,3.8,4.2
		c1.3,1,2.8,1.8,4.5,1.9c0.4,0,0.8,0,1.1-0.3c0.6-0.5,1.1-1.1,1.7-1.6c0.4-0.4,0.4-0.7-0.1-1c-0.8-0.5-1.6-0.9-2.4-1.4
		c-0.4-0.2-0.7-0.1-1,0.1c-0.2,0.1-0.3,0.3-0.5,0.4c-0.3,0.3-0.5,0.4-0.9,0.2c-1.4-0.7-2.6-1.8-3.4-3.2c-0.4-0.6-0.3-0.6,0.2-1.1
		c0.8-0.7,0.6-0.9,0.2-1.5C9.6,8,9.2,7.3,8.8,6.6c-0.3-0.5-0.7-0.5-1-0.1C7.2,7,6.7,7.5,6.2,8C5.9,8.3,5.7,8.6,5.8,9.1z"/>
</g>
</svg>
