<?xml version="1.0" encoding="utf-8"?>
<!-- Generator: Adobe Illustrator 25.4.1, SVG Export Plug-In . SVG Version: 6.00 Build 0)  -->
<svg version="1.1" id="Layer_1" xmlns="http://www.w3.org/2000/svg" xmlns:xlink="http://www.w3.org/1999/xlink" x="0px" y="0px"
	 width="24px" height="24px" viewBox="0 0 24 24" style="enable-background:new 0 0 24 24;" xml:space="preserve">
<style type="text/css">
	.st0{fill:#FFFFFF;}
</style>
<g>
	<path class="st0" d="M12.7,24c-0.5,0-1,0-1.5,0c-0.1,0-0.1,0-0.2,0c-2.3-0.2-4.4-0.9-6.2-2.4c-3.6-2.8-5.2-6.5-4.7-11
		c0.3-3.2,1.8-5.8,4.3-7.9C8.3-0.5,13.7-0.9,18,1.6c3.2,1.9,5.1,4.7,5.8,8.3c0.1,0.4,0.1,0.9,0.2,1.3c0,0.5,0,1,0,1.5
		c0,0.1,0,0.1,0,0.2c-0.2,2.1-0.8,4-1.9,5.7c-1.9,2.8-4.6,4.6-7.9,5.2C13.6,23.9,13.2,24,12.7,24z M5,7.2C5,7.3,5.1,7.3,5.2,7.4
		C7,9.2,8.9,11.1,10.7,13c0.2,0.2,0.4,0.5,0.7,0.7c0.3,0.1,0.6,0,1,0c0.1,0,0.2-0.1,0.3-0.1c2.1-2.1,4.1-4.1,6.2-6.2
		c0,0,0.1-0.1,0.1-0.1C14.3,7.2,9.7,7.2,5,7.2z M18.6,16.8c-1.3-1.3-2.7-2.7-4-4c0,0-0.1,0.1-0.2,0.1c-0.4,0.4-0.9,0.9-1.3,1.3
		c-0.1,0.1-0.3,0.2-0.5,0.2c-0.4,0-0.9,0-1.3,0c-0.2,0-0.4-0.1-0.5-0.2c-0.5-0.4-0.9-0.9-1.3-1.3c-0.1-0.1-0.1-0.1-0.2-0.2
		c0,0,0,0,0,0.1c-1.3,1.3-2.7,2.7-4,4C9.8,16.8,14.2,16.8,18.6,16.8z M8.8,12.2c-1.5-1.5-2.9-2.9-4.4-4.4c0,2.9,0,5.8,0,8.7
		C5.9,15.1,7.3,13.7,8.8,12.2z M19.6,7.9c-1.5,1.5-2.9,2.9-4.4,4.4c1.4,1.4,2.9,2.9,4.4,4.4C19.6,13.7,19.6,10.7,19.6,7.9z"/>
</g>
</svg>
