<?xml version="1.0" encoding="utf-8"?>
<!-- Generator: Adobe Illustrator 25.4.1, SVG Export Plug-In . SVG Version: 6.00 Build 0)  -->
<svg version="1.1" id="Layer_1" xmlns="http://www.w3.org/2000/svg" xmlns:xlink="http://www.w3.org/1999/xlink" x="0px" y="0px"
	 width="24px" height="24px" viewBox="0 0 24 24" style="enable-background:new 0 0 24 24;" xml:space="preserve">
<style type="text/css">
	.st0{fill:#00B22D;}
	.st1{fill:#FFFFFF;}
	.st2{fill:#01B22E;}
	.st3{fill:#FEFFFE;}
	.st4{fill:#1DBB45;}
</style>
<g>
	<path class="st0" d="M0,12.4c0-0.3,0-0.5,0-0.8c0-0.1,0-0.2,0-0.3c0-0.7,0.1-1.5,0.3-2.2c0.2-0.8,0.5-1.5,0.8-2.3
		C1.4,6.3,1.7,5.8,2,5.3c0.3-0.4,0.6-0.8,0.9-1.2c0.3-0.3,0.6-0.6,0.9-0.9c0.7-0.7,1.5-1.2,2.4-1.7c1-0.5,2-0.9,3-1.2
		c0.5-0.1,0.9-0.2,1.4-0.2c0.3,0,0.6,0,0.9,0c0,0,0.1,0,0.1,0c0.2,0,0.5,0,0.7,0c0.1,0,0.3,0,0.4,0c0.9,0,1.9,0.2,2.8,0.5
		c0.6,0.2,1.2,0.4,1.8,0.7c0.8,0.4,1.6,0.9,2.4,1.5c0.3,0.3,0.7,0.6,1,0.9c0.4,0.4,0.8,0.9,1.1,1.3c0.4,0.5,0.7,1,1,1.6
		c0.4,0.7,0.6,1.5,0.9,2.3c0.1,0.5,0.2,1,0.3,1.6c0,0.3,0,0.5,0,0.8c0,0,0,0.1,0,0.1c0,0.4,0,0.8,0,1.2c0,0.1,0,0.3,0,0.4
		c0,0.5-0.1,0.9-0.2,1.4c-0.2,0.9-0.5,1.7-0.8,2.6c-0.4,0.9-0.9,1.8-1.6,2.6c-0.4,0.5-0.8,0.9-1.2,1.3c-0.6,0.6-1.3,1.1-2,1.5
		c-1,0.6-2.1,1-3.2,1.3c-0.5,0.1-1,0.2-1.5,0.3c-0.3,0-0.5,0-0.8,0c0,0-0.1,0-0.1,0c-0.4,0-0.8,0-1.2,0c-0.1,0-0.2,0-0.4,0
		c-0.4,0-0.8-0.1-1.3-0.1C8.9,23.7,8,23.4,7.2,23c-0.6-0.3-1.1-0.6-1.7-0.9c-0.5-0.3-0.9-0.6-1.4-1C3.7,20.8,3.4,20.4,3,20
		c-0.4-0.4-0.7-0.9-1-1.3c-0.6-0.9-1.1-1.9-1.4-2.9c-0.2-0.7-0.4-1.3-0.5-2C0,13.4,0,13,0,12.7C0,12.6,0,12.5,0,12.4z"/>
	<path class="st1" d="M5.1,10.2c-0.2,0-0.3,0-0.5,0c-0.2,0-0.3,0.1-0.3,0.3c0,0.2,0,0.2,0.2,0.2c0.7,0,1.5,0,2.2,0
		c0.1,0,0.1,0,0.1,0.1c0,0.8,0,1.5,0,2.3c0,0.1,0,0.1,0.1,0.1c0.1,0,0.2,0,0.3,0c0,0,0.1,0,0.1,0c0,0.2,0,0.5,0,0.7c0,0,0,0.1-0.1,0
		c0,0,0,0-0.1,0c-0.6,0-1.2,0-1.7,0c0,0,0,0-0.1,0c0,0,0,0,0-0.1c0-0.1,0-0.2,0-0.3c0-0.1,0-0.3,0-0.4c0-0.1,0-0.1,0.1-0.1
		c0.1,0,0.2,0,0.3,0c0,0,0.1,0,0.1-0.1c0-0.1,0-0.2,0-0.4c0-0.4,0-0.8,0-1.2c0,0,0,0,0-0.1c0,0,0,0,0,0c0,0,0,0-0.1,0
		c-0.4,0-0.8,0-1.2,0c0,0,0,0-0.1,0c0,0,0,0,0,0c0,0,0,0,0,0.1c0,0.5,0,1,0,1.5c0,0,0,0,0,0c0,0,0,0.1,0.1,0.1c0.1,0,0.2,0,0.3,0
		c0.1,0,0.1,0,0.1,0.1c0,0.2,0,0.4,0,0.7c0,0.1,0,0.1-0.1,0.1c-0.3,0-0.7,0-1,0c-0.3,0-0.6,0-0.8,0c-0.1,0-0.1,0-0.1-0.1
		c0-0.2,0-0.4,0-0.7c0-0.1,0-0.1,0.1-0.1c0.1,0,0.2,0,0.3,0c0.1,0,0.1,0,0.1-0.1c0-0.4,0-0.7,0-1.1c0-0.2,0-0.3,0-0.5
		c0,0,0-0.1-0.1-0.1c-0.1,0-0.2,0-0.3,0c0,0-0.1,0-0.1-0.1c0-0.2,0-0.5,0-0.7c0,0,0-0.1,0.1-0.1c0.1,0,0.2,0,0.3,0
		c0.1,0,0.1,0,0.1-0.1c0-0.1,0-0.2,0-0.3C3.4,9.8,3.6,9.6,4,9.4c0.3-0.1,0.5-0.1,0.8-0.1c0.1,0,0.1,0,0.2,0c0.1,0,0.1,0,0.1,0.1
		c0,0.2,0,0.3,0,0.5C5.1,10,5.1,10.1,5.1,10.2z"/>
	<path class="st1" d="M12.2,12.6c0.1,0.3,0.3,0.6,0.6,0.6c0.3,0,0.5,0,0.7-0.1c0.1,0,0.2-0.1,0.3-0.2c0,0,0.1,0,0.1,0
		c0.1,0.2,0.2,0.4,0.4,0.7c0,0,0,0.1,0,0.1c-0.2,0.1-0.4,0.2-0.6,0.3c-0.5,0.2-1,0.2-1.5,0c-0.6-0.2-1-0.7-1.1-1.3
		c-0.1-0.4,0-0.9,0.2-1.3c0.2-0.4,0.6-0.7,1.1-0.8c0.3-0.1,0.5-0.1,0.8,0c0.6,0.1,1,0.5,1.1,1.1c0.1,0.2,0.1,0.5,0,0.7
		c0,0,0,0.1-0.1,0.1c0,0,0,0-0.1,0c-0.6,0-1.2,0-1.9,0C12.3,12.6,12.2,12.6,12.2,12.6z"/>
	<path class="st1" d="M8.6,11.5C8.8,12,9,12.6,9.1,13.1c0,0,0,0,0,0c0-0.1,0-0.3,0.1-0.4c0.1-0.4,0.2-0.7,0.4-1.1c0,0,0,0,0-0.1
		c-0.1,0-0.1,0-0.2,0c0,0-0.1,0-0.1-0.1c0-0.2,0-0.5,0-0.7c0-0.1,0-0.1,0.1-0.1c0.2,0,0.5,0,0.7,0c0.3,0,0.6,0,0.9,0
		c0.1,0,0.1,0,0.1,0.1c0,0.2,0,0.4,0,0.7c0,0.1,0,0.1-0.1,0.1c-0.1,0-0.1,0-0.2,0c-0.1,0-0.1,0-0.1,0.1c-0.1,0.3-0.2,0.6-0.3,0.9
		c-0.2,0.5-0.4,1-0.5,1.5c0,0.1,0,0.1-0.1,0.1c-0.4,0-0.8,0-1.1,0c-0.1,0-0.1,0-0.1-0.1c-0.3-0.8-0.6-1.6-0.9-2.3
		c0-0.1,0-0.1-0.1-0.1c-0.1,0-0.1,0-0.2,0c0,0-0.1,0-0.1-0.1c0-0.2,0-0.5,0-0.7c0,0,0-0.1,0.1-0.1c0.1,0,0.2,0,0.3,0
		c0.4,0,0.8,0,1.3,0c0,0,0,0,0.1,0c0.1,0,0.1,0,0.1,0.1c0,0.2,0,0.4,0,0.7c0,0.1,0,0.1-0.1,0.1C8.8,11.5,8.7,11.5,8.6,11.5z"/>
	<path class="st1" d="M16.1,11.4c0.1-0.2,0.2-0.4,0.4-0.6c0.2-0.1,0.4-0.2,0.6-0.2c0,0,0,0,0.1,0c0.1,0,0.1,0,0.1,0.1
		c0,0.3,0,0.6,0,0.8c0,0,0,0.1,0,0.1c0,0.1,0,0.1-0.1,0.1c-0.1,0-0.2,0-0.3,0c-0.4,0.1-0.7,0.3-0.7,0.7c0,0.1,0,0.2,0,0.3
		c0,0.1,0,0.3,0,0.4c0,0,0,0.1,0.1,0.1c0.1,0,0.2,0,0.3,0c0,0,0.1,0,0.1,0.1c0,0.2,0,0.5,0,0.7c0,0.1,0,0.1-0.1,0.1
		c-0.2,0-0.3,0-0.5,0c-0.5,0-0.9,0-1.4,0c0,0,0,0-0.1,0c-0.1,0-0.1,0-0.1-0.1c0,0,0,0,0-0.1c0-0.2,0-0.4,0-0.6c0-0.1,0-0.1,0.1-0.1
		c0.1,0,0.2,0,0.3,0c0,0,0.1,0,0.1-0.1c0-0.1,0-0.2,0-0.3c0-0.4,0-0.8,0-1.2c0,0,0-0.1,0-0.1c0-0.1,0-0.1-0.1-0.1
		c-0.1,0-0.2,0-0.2,0c-0.1,0-0.1,0-0.1-0.1c0-0.2,0-0.4,0-0.7c0-0.1,0-0.1,0.1-0.1c0.3,0,0.7,0,1,0c0.1,0,0.1,0,0.2,0
		c0.1,0,0.2,0.1,0.2,0.3C16.1,11.1,16.1,11.2,16.1,11.4C16.1,11.3,16.1,11.4,16.1,11.4z"/>
	<path class="st1" d="M19.1,11.4c0.1-0.2,0.2-0.4,0.4-0.6c0.2-0.1,0.4-0.2,0.7-0.2c0.1,0,0.1,0,0.1,0.1c0,0.3,0,0.6,0,0.9
		c0,0.1,0,0.1-0.1,0.1c-0.1,0-0.3,0-0.4,0c-0.3,0.1-0.5,0.2-0.6,0.5c0,0.1-0.1,0.3-0.1,0.4c0,0.2,0,0.3,0,0.5c0,0.1,0,0.1,0.1,0.1
		c0.1,0,0.2,0,0.3,0c0,0,0.1,0,0.1,0.1c0,0.2,0,0.5,0,0.7c0,0,0,0.1-0.1,0.1c0,0,0,0-0.1,0c-0.6,0-1.2,0-1.8,0c0,0,0,0-0.1,0
		c0,0,0,0,0-0.1c0-0.1,0-0.1,0-0.2c0-0.2,0-0.3,0-0.5c0-0.1,0-0.1,0.1-0.1c0.1,0,0.2,0,0.3,0c0.1,0,0.1,0,0.1-0.1c0-0.2,0-0.4,0-0.6
		c0-0.3,0-0.6,0-0.9c0-0.1,0-0.2-0.2-0.2c-0.1,0-0.1,0-0.2,0c0,0-0.1,0-0.1-0.1c0-0.2,0-0.5,0-0.7c0,0,0-0.1,0.1-0.1
		c0.3,0,0.7,0,1,0c0,0,0.1,0,0.1,0c0.2,0,0.3,0.2,0.3,0.4C19.1,11.1,19.1,11.2,19.1,11.4C19.1,11.3,19.1,11.4,19.1,11.4z"/>
	<path class="st1" d="M6.3,9.2c0.3,0,0.5,0.2,0.5,0.5c0,0.3-0.2,0.5-0.5,0.5c-0.3,0-0.5-0.2-0.5-0.5C5.7,9.5,6,9.2,6.3,9.2z"/>
	<path class="st1" d="M21.2,10.5c-0.4,0-0.7-0.3-0.7-0.7c0-0.4,0.3-0.7,0.7-0.7c0.4,0,0.7,0.3,0.7,0.7
		C21.9,10.2,21.6,10.5,21.2,10.5z"/>
	<path class="st2" d="M12.7,11.9c-0.1,0-0.3,0-0.4,0c-0.1,0-0.1,0-0.1-0.1c0-0.1,0.1-0.2,0.2-0.3c0.2-0.2,0.6-0.1,0.7,0.2
		c0,0.2,0,0.2-0.1,0.2C12.9,11.9,12.8,11.9,12.7,11.9z"/>
	<path class="st2" d="M20.7,9.8c0-0.2,0-0.3,0.2-0.4c0.2-0.2,0.5-0.2,0.6,0c0.2,0.2,0.2,0.5,0.1,0.7c-0.1,0.2-0.3,0.2-0.5,0.2
		C20.9,10.2,20.7,10.1,20.7,9.8C20.7,9.8,20.7,9.8,20.7,9.8z"/>
	<path class="st3" d="M21.5,10.1c-0.1,0-0.1,0-0.2,0c-0.1,0-0.1-0.1-0.1-0.2c0,0,0,0,0,0c0,0,0,0,0,0c0,0,0,0,0,0c0,0,0,0.1,0,0.1
		c0,0.1,0,0.1-0.1,0.1c-0.1,0-0.1,0-0.1-0.1c0-0.2,0-0.3,0-0.5c0-0.1,0-0.1,0.1-0.1c0.1,0,0.2,0,0.2,0c0.1,0,0.2,0,0.2,0.1
		c0,0.1,0,0.2-0.1,0.3c0,0,0,0,0,0.1C21.4,9.9,21.5,10,21.5,10.1z"/>
	<path class="st4" d="M21.1,9.6C21.1,9.6,21.1,9.6,21.1,9.6c0.1-0.1,0.1-0.1,0.1,0C21.3,9.7,21.2,9.7,21.1,9.6
		C21.1,9.7,21.1,9.7,21.1,9.6z"/>
</g>
</svg>
