<?xml version="1.0" encoding="utf-8"?>
<!-- Generator: Adobe Illustrator 25.4.1, SVG Export Plug-In . SVG Version: 6.00 Build 0)  -->
<svg version="1.1" id="Layer_1" xmlns="http://www.w3.org/2000/svg" xmlns:xlink="http://www.w3.org/1999/xlink" x="0px" y="0px"
	 width="24px" height="24px" viewBox="0 0 24 24" style="enable-background:new 0 0 24 24;" xml:space="preserve">
<style type="text/css">
	.st0{fill:url(#SVGID_1_);}
	.st1{fill:#FEFCFC;}
</style>
<g>
	<linearGradient id="SVGID_1_" gradientUnits="userSpaceOnUse" x1="3.6937" y1="3.8144" x2="20.1618" y2="20.0431">
		<stop  offset="0" style="stop-color:#FAD028"/>
		<stop  offset="0.2642" style="stop-color:#FE8C5C"/>
		<stop  offset="0.5101" style="stop-color:#FE4B78"/>
		<stop  offset="0.7693" style="stop-color:#C91C95"/>
		<stop  offset="1" style="stop-color:#801CC4"/>
	</linearGradient>
	<circle class="st0" cx="12" cy="12" r="12"/>
	<g>
		<path class="st1" d="M12.5,18.3c-0.5,0-1.1,0-1.6,0c-0.5,0-0.9,0-1.4,0c-0.4,0-0.7,0-1.1-0.1c-0.9-0.2-1.6-0.7-2.1-1.4
			c-0.3-0.5-0.5-1-0.6-1.5c-0.1-0.7,0-1.4,0-2.2c0-0.5,0-1.1,0-1.6c0-0.5,0-1.1,0-1.6c0-0.5,0-1,0.1-1.5c0-0.1,0.1-0.3,0.1-0.4
			c0.4-1,1.1-1.7,2.2-2.1c0.6-0.2,1.1-0.2,1.7-0.2c0.6,0,1.1,0,1.7,0c0.5,0,1.1,0,1.6,0c0.7,0,1.4,0,2.2,0c0.6,0.1,1.1,0.3,1.6,0.6
			c0.7,0.5,1.2,1.2,1.4,2.1c0.1,0.4,0.1,0.8,0.1,1.2c0,0.6,0,1.2,0,1.7c0,0.4,0,0.8,0,1.3c0,0.5,0,1,0,1.5c0,0.5,0,1-0.1,1.5
			c-0.3,1.5-1.5,2.6-3,2.8c-0.1,0-0.2,0-0.3,0C14.1,18.3,13.3,18.3,12.5,18.3z M17.2,13.6c0-0.4,0-0.9,0-1.3c0-0.8,0-1.6,0-2.4
			c0-0.5-0.1-1-0.3-1.5c-0.3-0.5-0.6-0.9-1.1-1.2c-0.1-0.1-0.1-0.1-0.2-0.1c-0.5-0.3-1.1-0.3-1.7-0.3c-0.6,0-1.2,0-1.9,0
			c-0.6,0-1.2,0-1.9,0c-0.2,0-0.4,0-0.7,0C8.7,6.9,8,7.2,7.4,7.9c-0.5,0.7-0.7,1.5-0.6,2.3c0,0.6,0,1.2,0,1.9c0,0.6,0,1.3,0,1.9
			c0,0.1,0,0.3,0,0.4c0,0.5,0.1,1,0.4,1.4c0,0.1,0.1,0.2,0.1,0.2c0.6,0.8,1.5,1.2,2.5,1.2c0.8,0,1.6,0,2.4,0c0.4,0,0.9,0,1.3,0
			c0.3,0,0.5,0,0.8,0c1,0,1.8-0.5,2.4-1.3C17.2,15.2,17.2,14.4,17.2,13.6z"/>
		<path class="st1" d="M9.3,13.8c-0.3-0.5-0.5-1.1-0.5-1.6c0-0.4,0.1-0.8,0.2-1.2c0.2-0.6,0.5-1.1,1-1.5c0.6-0.5,1.4-0.8,2.2-0.7
			c0.6,0,1.1,0.2,1.6,0.6c0.7,0.5,1.2,1.2,1.3,2.1c0,0.2,0,0.4,0,0.7c-0.1,1.2-0.6,2.1-1.6,2.7c-0.5,0.3-1,0.4-1.6,0.5
			c-0.9,0-1.7-0.3-2.4-1C9.5,14.1,9.4,13.9,9.3,13.8z M10.1,12.9c0.4,0.9,1.4,1.4,2.4,1.2c0.9-0.2,1.7-1,1.7-2c0-0.9-0.4-1.5-1.1-2
			c-0.8-0.4-1.8-0.3-2.5,0.3C9.8,11.1,9.6,12.2,10.1,12.9z"/>
		<path class="st1" d="M14.6,8.5c0.1-0.4,0.3-0.6,0.7-0.7c0.7,0,0.9,0.6,0.8,1c-0.1,0.4-0.4,0.6-0.8,0.6C15,9.3,14.6,9.1,14.6,8.5z"
			/>
	</g>
</g>
</svg>
