<?xml version="1.0" encoding="utf-8"?>
<!-- Generator: Adobe Illustrator 25.4.1, SVG Export Plug-In . SVG Version: 6.00 Build 0)  -->
<svg version="1.1" id="Layer_1" xmlns="http://www.w3.org/2000/svg" xmlns:xlink="http://www.w3.org/1999/xlink" x="0px" y="0px"
	 width="24px" height="24px" viewBox="0 0 24 24" style="enable-background:new 0 0 24 24;" xml:space="preserve">
<style type="text/css">
	.st0{fill:#057CB9;}
	.st1{fill:#FFFFFF;}
	.st2{fill:#5CA7CE;}
	.st3{fill:#3593C5;}
	.st4{fill:#81BAD7;}
	.st5{fill:#A8CDE0;}
</style>
<g>
	<path class="st0" d="M24,11.1c0,0.6,0,1.2,0,1.8c0,0.3,0,0.7-0.1,1c0,0.6-0.2,1.1-0.4,1.6c-0.5,1.6-1.3,3.1-2.4,4.4
		c-1,1.1-2.1,2.1-3.5,2.8c-1.1,0.6-2.3,1-3.6,1.2C13.1,24,12.2,24,11.2,24c-0.5,0-1.1,0-1.6-0.1c-2-0.4-3.8-1.3-5.4-2.6
		c-1.9-1.6-3.2-3.7-3.9-6.2C0.1,14.4,0,13.7,0,13c0-0.6,0-1.3,0-1.9c0-1.4,0.4-2.7,0.9-3.9c0.4-1,1-1.9,1.7-2.7
		c1-1.3,2.3-2.3,3.7-3.1c1-0.5,2-0.9,3.1-1.2c0.5-0.1,1-0.1,1.5-0.1c0.1,0,0.1,0,0.2,0c0.6,0,1.2,0,1.8,0c0.4,0.1,0.8,0.1,1.1,0.1
		c0.5,0,1,0.2,1.5,0.3c1.7,0.5,3.1,1.3,4.4,2.5c1.1,1,2.1,2.2,2.8,3.6c0.5,0.9,0.8,1.9,1.1,2.9c0.1,0.5,0.1,1,0.2,1.5
		C24,10.9,23.9,11,24,11.1z"/>
	<path class="st1" d="M13.3,17.9c-0.9,0-1.8,0-2.7,0c-0.1,0-0.2-0.1-0.2-0.2c0-0.5,0-0.9,0-1.4c0-0.4,0-0.9,0-1.3c0-1.5,0-3.1,0-4.6
		c0-0.2,0-0.4,0-0.6c0-0.6,0-0.6,0.6-0.6c0.8,0,1.5,0,2.3,0c0.1,0.3,0,0.6,0,0.9c0,0.1-0.1,0.2,0.1,0.2c0.5-0.7,1.1-1.2,2-1.3
		c0.6-0.1,1.2,0,1.7,0.2c1,0.3,1.6,1.1,1.9,2c0.2,0.6,0.2,1.3,0.2,2c0,1.5,0,2.9,0,4.4c0,0.2-0.1,0.2-0.2,0.2c-0.9,0-1.7,0-2.6,0
		c0-0.1,0-0.2,0-0.3c0-1.4,0-2.8,0-4.2c0-0.1,0-0.2,0-0.3c0-0.5-0.1-1-0.4-1.4c-0.2-0.3-0.5-0.4-0.8-0.4c-0.4,0-0.7,0-1,0.2
		c-0.5,0.3-0.7,0.7-0.8,1.3c0,0,0,0.1,0,0.1c0,0.1,0,0.2,0,0.3c0,1.5,0,3,0,4.5C13.3,17.7,13.3,17.8,13.3,17.9z"/>
	<path class="st1" d="M8.8,13.6c0,1.3,0,2.7,0,4c0,0.2-0.1,0.2-0.2,0.2c-0.8,0-1.6,0-2.4,0c-0.2,0-0.2,0-0.2-0.2c0-2.7,0-5.4,0-8.2
		C6,9.3,6,9.3,6.2,9.3c0.8,0,1.6,0,2.4,0c0.2,0,0.2,0.1,0.2,0.2C8.8,10.9,8.8,12.2,8.8,13.6z"/>
	<path class="st1" d="M9,6.6c0,0.9-0.7,1.5-1.6,1.4c-0.9,0-1.6-0.6-1.6-1.5c0-0.9,0.7-1.5,1.6-1.5C8.4,5.1,9,5.8,9,6.6z"/>
	<path class="st2" d="M13.3,17.9c0-1.5,0-3.1,0-4.6c0-0.1,0-0.2,0-0.3c0,1.6,0,3.1,0,4.7C13.3,17.7,13.3,17.8,13.3,17.9z"/>
	<path class="st3" d="M16.3,13.2c0.1,0.1,0,0.2,0,0.3c0,1.5,0,3,0,4.4c-0.1-0.1,0-0.2,0-0.3C16.3,16.1,16.3,14.6,16.3,13.2z"/>
	<path class="st4" d="M10.4,10.4c0,1.5,0,3.1,0,4.6c0,0,0,0,0,0c0-1,0-2,0-3C10.4,11.5,10.4,10.9,10.4,10.4
		C10.4,10.4,10.5,10.4,10.4,10.4z"/>
	<path class="st5" d="M10.4,15C10.4,15,10.4,15,10.4,15c0,0.4,0.1,0.9,0,1.3C10.4,15.9,10.4,15.5,10.4,15z"/>
	<path class="st2" d="M13.4,10.4c-0.2,0-0.1-0.1-0.1-0.1c0-0.3,0-0.6,0-1c0.1,0.2,0,0.4,0,0.5C13.3,10,13.3,10.2,13.4,10.4z"/>
	<path class="st5" d="M10.4,10.4C10.4,10.4,10.4,10.4,10.4,10.4c0-0.2,0-0.4,0-0.5C10.5,10.1,10.5,10.2,10.4,10.4z"/>
</g>
</svg>
