<?xml version="1.0" encoding="utf-8"?>
<!-- Generator: Adobe Illustrator 25.4.1, SVG Export Plug-In . SVG Version: 6.00 Build 0)  -->
<svg version="1.1" id="Layer_1" xmlns="http://www.w3.org/2000/svg" xmlns:xlink="http://www.w3.org/1999/xlink" x="0px" y="0px"
	 width="24px" height="24px" viewBox="0 0 24 24" style="enable-background:new 0 0 24 24;" xml:space="preserve">
<style type="text/css">
	.st0{fill:#6FD944;}
	.st1{fill:#FFFFFF;}
</style>
<g>
	<path class="st0" d="M8.3,11.1c-0.3-0.6-0.8-1-1.5-1c-0.5-0.1-0.9,0.1-1.3,0.3c-0.3,0.3-0.6,0.6-0.7,1c0,0.1,0,0.1-0.1,0.2
		c0,0,0,0,0,0C4.3,11,4,10.3,3.8,9.6c0-0.1,0-0.1-0.1-0.1c-0.3,0-0.6,0-0.8,0c-0.1,0-0.1,0-0.1,0.1c0,0.8,0,1.6,0,2.4
		c0,0.1,0,0.1,0,0.2c-0.1,0.4-0.3,0.7-0.7,0.8c-0.4,0.1-0.7-0.1-1-0.4C1,12.5,1,12.3,1,12.1c0-0.8,0-1.6,0-2.4c0,0,0-0.1-0.1-0.1
		c-0.3,0-0.6,0-0.9,0c0,0-0.1,0-0.1,0.1c0,0.8,0,1.7,0,2.5c0,0.3,0.1,0.6,0.2,0.8c0.4,0.9,1.4,1.3,2.3,1c0.7-0.3,1.3-1,1.3-1.8
		c0-0.2,0-0.3,0-0.5c0,0,0,0,0,0c0,0,0,0,0,0c0.2,0.4,0.4,0.7,0.7,1.1c0,0,0,0,0,0.1c0,0.2-0.1,0.4-0.1,0.6
		c-0.1,0.7-0.3,1.4-0.4,2.1c0,0,0,0,0,0c0.3,0,0.5,0,0.8,0c0,0,0.1,0,0.1,0c0,0,0-0.1,0-0.1c0.1-0.6,0.3-1.2,0.4-1.9c0,0,0,0,0,0
		c0.1,0.1,0.2,0.1,0.3,0.2C6.1,14,6.5,14,7,13.9C8.3,13.6,8.9,12.2,8.3,11.1z M7.6,12.1c0,0.6-0.5,1-1.1,0.9c-0.4,0-0.7-0.2-0.9-0.4
		c0,0,0,0,0,0c0.1-0.2,0.1-0.5,0.2-0.7c0.1-0.2,0.2-0.4,0.4-0.6C6.2,11.1,6.4,11,6.7,11C7.2,11,7.6,11.5,7.6,12.1z"/>
	<path class="st1" d="M11.1,11.3c0,0.1,0,0.1-0.1,0.2c-0.2,0.8-0.4,1.5-0.6,2.3c0,0,0,0.1-0.1,0.1c-0.2,0-0.5,0-0.7,0
		c0,0-0.1,0-0.1,0c-0.4-1.2-0.7-2.4-1.1-3.5c0-0.1,0-0.1,0.1-0.1c0.2,0,0.5,0,0.7,0c0,0,0.1,0,0.1,0.1c0.1,0.4,0.3,0.9,0.4,1.3
		c0.1,0.4,0.2,0.7,0.3,1.1c0,0,0,0,0,0c0,0,0-0.1,0-0.1c0.2-0.8,0.4-1.6,0.5-2.3c0,0,0-0.1,0.1-0.1c0.2,0,0.5,0,0.7,0
		c0,0,0,0,0.1,0.1c0.1,0.6,0.3,1.1,0.4,1.7c0.1,0.2,0.1,0.5,0.2,0.7c0,0,0,0,0,0c0-0.1,0.1-0.3,0.1-0.4c0.2-0.7,0.4-1.4,0.5-2.1
		c0,0,0-0.1,0.1-0.1c0.2,0,0.5,0,0.7,0c0.1,0,0.1,0,0.1,0.1c-0.2,0.6-0.3,1.2-0.5,1.8c-0.2,0.6-0.3,1.2-0.5,1.8c0,0.1,0,0.1-0.1,0.1
		c-0.2,0-0.5,0-0.7,0c0,0-0.1,0-0.1-0.1C11.5,13,11.3,12.2,11.1,11.3C11.1,11.4,11.1,11.3,11.1,11.3C11.1,11.3,11.1,11.3,11.1,11.3z
		"/>
	<path class="st1" d="M21.5,12.9c0,0.3,0,0.5,0,0.8c0,0.1,0,0.1-0.1,0.1c-0.2,0-0.5,0-0.7,0c-0.1,0-0.1,0-0.1-0.1c0-1,0-2.1,0-3.1
		c0-0.7,0-1.5,0-2.2c0-0.1,0-0.1,0.1-0.1c0.2,0,0.5,0,0.7,0c0,0,0.1,0,0.1,0.1c0,0.2,0,0.4,0,0.7c0,0.7,0,1.4,0,2.1
		c0,0.1,0,0.1,0.1,0.1c0.6,0,1.1-0.4,1.1-0.9c0,0,0-0.1,0-0.1c0,0,0,0,0,0c0.2,0,0.5,0,0.7,0c0.1,0,0.1,0,0.1,0.1
		c0,0.4-0.2,0.8-0.4,1.1c-0.1,0.2-0.3,0.3-0.5,0.4c0,0,0,0,0,0.1c0.4,0.6,0.9,1.3,1.3,1.9c0,0,0,0,0,0c0,0,0,0,0,0c0,0,0,0,0,0
		c-0.3,0-0.6,0-0.9,0c0,0-0.1,0-0.1,0c-0.4-0.5-0.8-1-1.1-1.5c-0.1-0.1-0.2-0.1-0.3-0.1c0,0-0.1,0-0.1,0.1
		C21.5,12.4,21.5,12.7,21.5,12.9C21.5,12.9,21.5,12.9,21.5,12.9z"/>
	<path class="st1" d="M15.6,10c-1.1,0-1.9,0.9-1.9,1.9c0,1.1,0.9,1.9,1.9,1.9c1.1,0,1.9-0.9,1.9-1.9C17.5,10.9,16.6,10,15.6,10z
		 M15.6,13.1c-0.6,0-1.1-0.5-1.1-1.1c0-0.6,0.5-1.1,1.1-1.1c0.6,0,1.1,0.5,1.1,1.1C16.7,12.6,16.2,13.1,15.6,13.1z"/>
	<path class="st1" d="M18.9,10.7c0.1-0.1,0.2-0.2,0.3-0.3c0.2-0.2,0.5-0.2,0.7-0.3c0.1,0,0.2,0,0.2,0c0,0,0,0,0,0c0,0.2,0,0.5,0,0.7
		c0,0,0,0-0.1,0c-0.1,0-0.3,0-0.4,0c-0.4,0-0.8,0.4-0.9,0.8c0,0.1,0,0.2,0,0.2c0,0.6,0,1.2,0,1.7c0,0.1,0,0.1-0.1,0.1
		c-0.2,0-0.5,0-0.7,0c-0.1,0-0.1,0-0.1-0.1c0-0.9,0-1.8,0-2.7c0-0.3,0-0.6,0-0.9c0,0,0-0.1,0.1-0.1c0.2,0,0.5,0,0.7,0
		c0.1,0,0.1,0,0.1,0.1C18.8,10.4,18.8,10.5,18.9,10.7C18.8,10.7,18.8,10.7,18.9,10.7z"/>
</g>
</svg>
